<?xml version="1.0" standalone="no"?>
<!DOCTYPE svg PUBLIC "-//W3C//DTD SVG 20010904//EN"
 "http://www.w3.org/TR/2001/REC-SVG-20010904/DTD/svg10.dtd">
<svg version="1.0" xmlns="http://www.w3.org/2000/svg"
 width="1000.000000pt" height="1000.000000pt" viewBox="0 0 1000.000000 1000.000000"
 preserveAspectRatio="xMidYMid meet">
<metadata>
Created by potrace 1.11, written by Peter Selinger 2001-2013
</metadata>
<g transform="translate(0.000000,1000.000000) scale(0.100000,-0.100000)"
fill="#000000" stroke="none">
<path d="M2487 8625 c-1 -1 -42 -5 -91 -9 -164 -11 -413 -72 -591 -144 -596
-240 -1105 -767 -1209 -1252 -25 -118 -26 -129 -27 -231 0 -333 160 -578 479
-731 74 -35 191 -78 212 -78 14 0 207 157 199 162 -2 2 -29 12 -59 22 -272 91
-485 273 -568 486 -20 52 -49 167 -50 200 -3 91 -2 180 3 200 2 13 7 42 11 65
7 53 55 195 90 270 180 385 566 701 1008 825 88 24 110 29 201 44 91 15 131
18 240 21 148 3 254 -15 358 -59 176 -76 309 -222 398 -434 92 -220 131 -469
130 -832 -1 -102 -3 -210 -6 -240 -2 -30 -7 -93 -10 -140 -3 -47 -8 -94 -10
-105 -2 -11 -4 -23 -4 -27 -1 -3 -18 -28 -39 -55 -244 -308 -595 -898 -778
-1304 -25 -57 -59 -131 -74 -164 -99 -213 -231 -574 -348 -955 -44 -142 -128
-486 -147 -600 -3 -19 -8 -42 -10 -50 -2 -8 -6 -33 -10 -55 -3 -22 -7 -47 -10
-55 -2 -8 -6 -37 -10 -65 -3 -27 -8 -63 -10 -80 -2 -16 -6 -46 -9 -65 -20
-151 -27 -408 -13 -500 26 -175 72 -214 188 -163 70 31 186 147 242 242 41 68
171 331 229 461 110 246 296 720 393 1002 19 57 39 112 44 123 22 49 163 498
236 748 75 261 196 749 220 887 3 19 12 67 20 105 19 92 62 345 70 415 4 30 9
62 10 70 2 8 6 42 10 75 8 71 9 73 87 172 265 335 668 726 878 851 143 85 219
85 306 -3 40 -39 58 -69 83 -134 32 -82 64 -217 75 -316 3 -27 8 -70 11 -95
14 -119 21 -663 10 -795 -1 -22 -6 -98 -9 -170 -4 -71 -9 -146 -11 -165 -2
-19 -6 -71 -10 -115 -6 -79 -12 -148 -20 -235 -9 -87 -46 -435 -50 -470 -2
-19 -7 -60 -11 -90 -11 -87 -12 -102 -20 -165 -3 -33 -8 -67 -9 -75 -1 -8 -6
-44 -10 -80 -4 -36 -9 -74 -11 -85 -2 -11 -7 -45 -10 -75 -3 -30 -7 -67 -10
-81 -2 -15 -6 -47 -9 -70 -3 -24 -7 -60 -10 -79 -2 -19 -11 -91 -20 -160 -8
-69 -17 -138 -20 -155 -2 -16 -7 -57 -10 -90 -4 -33 -8 -71 -10 -84 -10 -59
-18 -184 -18 -273 1 -151 32 -178 147 -123 151 72 313 319 639 976 89 179 176
356 194 395 17 38 55 119 83 179 29 61 65 137 80 170 15 33 48 104 74 158 25
54 46 100 46 101 0 3 43 95 157 336 25 52 60 127 78 165 165 355 441 905 541
1078 19 32 34 60 34 61 0 6 156 271 195 331 33 53 49 69 40 43 -2 -7 -11 -53
-20 -103 -9 -49 -32 -165 -50 -257 -19 -91 -36 -177 -39 -190 -2 -12 -9 -43
-15 -68 -5 -25 -13 -61 -16 -80 -3 -19 -8 -42 -10 -50 -4 -15 -71 -331 -80
-380 -5 -24 -10 -48 -19 -87 -4 -18 -94 -458 -102 -498 -2 -11 -6 -31 -9 -45
-3 -14 -10 -50 -16 -80 -5 -30 -14 -75 -19 -100 -5 -25 -12 -58 -15 -75 -3
-16 -18 -106 -35 -200 -16 -93 -32 -188 -35 -210 -4 -22 -13 -76 -21 -120 -7
-44 -16 -98 -19 -120 -2 -22 -8 -58 -12 -80 -4 -22 -6 -43 -5 -47 1 -4 -3 -31
-8 -60 -8 -50 -11 -73 -25 -195 -3 -27 -8 -59 -10 -73 -3 -14 -7 -56 -10 -95
-4 -38 -8 -81 -10 -95 -2 -14 -6 -59 -10 -100 -3 -41 -8 -95 -10 -120 -25
-262 -25 -953 0 -1075 2 -11 7 -42 10 -70 11 -101 16 -132 36 -235 99 -511
319 -829 649 -940 260 -88 591 -49 1000 117 117 47 436 198 450 213 3 3 25 16
50 29 194 103 675 417 675 440 0 8 -7 18 -16 24 -13 8 -50 -13 -180 -100 -539
-362 -979 -564 -1330 -610 -56 -7 -207 -9 -269 -3 -40 3 -183 37 -208 49 -125
58 -175 92 -258 175 -87 88 -138 163 -202 297 -84 174 -153 434 -178 669 -2
25 -6 56 -9 70 -27 167 -27 832 1 1155 2 28 6 77 9 110 6 69 14 145 20 195 3
19 7 64 10 100 3 36 7 74 9 85 2 11 7 47 10 80 7 57 10 80 20 158 3 17 8 55
12 82 3 28 8 57 9 67 2 9 6 38 10 65 4 26 9 59 11 73 7 37 13 80 19 125 3 22
7 51 10 65 3 14 10 54 16 90 5 36 12 79 16 95 3 17 7 39 8 50 6 35 15 88 25
140 6 28 12 61 15 75 3 14 7 36 10 50 2 14 7 39 10 56 7 47 90 461 120 599 30
142 33 158 40 188 37 163 46 206 51 232 3 17 7 36 10 43 5 17 54 227 60 262 3
14 20 86 39 160 54 213 66 271 66 327 1 68 -5 76 -48 68 -176 -33 -422 -400
-977 -1458 -73 -138 -376 -745 -451 -902 -32 -66 -85 -176 -117 -245 -120
-250 -171 -357 -210 -440 -83 -176 -251 -538 -318 -685 -13 -27 -49 -105 -80
-171 -32 -67 -61 -132 -65 -144 -9 -28 -27 -21 -37 16 -8 25 -3 266 7 359 6
61 17 151 20 175 2 14 6 50 10 80 3 30 8 66 10 80 2 14 7 54 11 90 3 36 8 72
9 81 2 9 6 40 9 70 4 30 11 83 16 119 8 59 12 90 26 200 2 19 9 69 14 110 5
41 12 102 15 135 4 33 8 71 10 85 2 14 7 52 10 85 3 33 10 94 15 135 5 41 12
104 15 140 3 36 10 108 16 160 5 52 12 133 15 180 3 47 7 103 9 125 20 221 27
748 12 930 -5 55 -10 102 -12 105 -2 3 -6 25 -9 50 -17 121 -58 282 -96 374
-58 138 -149 236 -237 252 -144 27 -373 -94 -658 -349 -173 -156 -446 -445
-608 -647 l-28 -35 5 50 c30 286 29 619 -3 830 -88 579 -356 869 -814 879 -59
1 -108 2 -110 1z m680 -2212 c-3 -5 -8 -28 -11 -53 -15 -110 -40 -259 -66
-400 -26 -138 -134 -596 -191 -805 -22 -82 -42 -158 -44 -167 -30 -146 -359
-1148 -424 -1293 -5 -11 -24 -58 -42 -105 -18 -47 -59 -150 -92 -230 -94 -229
-115 -275 -220 -487 -44 -90 -83 -163 -88 -163 -13 0 -38 91 -46 165 -15 153
-5 349 33 590 24 160 33 207 64 345 12 52 24 105 26 117 2 12 8 33 13 45 5 13
9 26 9 31 3 45 101 385 174 602 201 598 484 1192 791 1663 54 83 103 152 109
152 5 0 7 -3 5 -7z"/>
</g>
</svg>
