<?xml version="1.0" standalone="no"?>
<!DOCTYPE svg PUBLIC "-//W3C//DTD SVG 20010904//EN"
 "http://www.w3.org/TR/2001/REC-SVG-20010904/DTD/svg10.dtd">
<svg version="1.0" xmlns="http://www.w3.org/2000/svg"
 width="504.000000pt" height="504.000000pt" viewBox="0 0 504.000000 504.000000"
 preserveAspectRatio="xMidYMid meet">
<metadata>
Created by potrace 1.11, written by Peter Selinger 2001-2013
</metadata>
<g transform="translate(0.000000,504.000000) scale(0.100000,-0.100000)"
fill="#000000" stroke="none">
<path d="M1320 3715 l-1195 -1195 1198 -1198 1197 -1197 1197 1197 1198 1198
-1195 1195 c-657 657 -1197 1195 -1200 1195 -3 0 -543 -538 -1200 -1195z m568
-293 c186 -191 493 -511 552 -573 l75 -81 135 139 c171 174 378 388 460 476
l64 67 93 0 93 0 0 -850 0 -850 -95 0 -95 0 0 678 0 677 -97 -100 c-53 -55
-199 -207 -325 -337 l-229 -237 -137 142 c-75 78 -196 203 -269 277 -72 74
-159 164 -192 200 l-61 64 0 -682 0 -682 -90 0 -90 0 0 850 0 850 91 0 c86 0
92 -1 117 -28z"/>
</g>
</svg>
