<?xml version="1.0" standalone="no"?>
<!DOCTYPE svg PUBLIC "-//W3C//DTD SVG 20010904//EN"
 "http://www.w3.org/TR/2001/REC-SVG-20010904/DTD/svg10.dtd">
<svg version="1.0" xmlns="http://www.w3.org/2000/svg"
 width="650.000000pt" height="650.000000pt" viewBox="0 0 650.000000 650.000000"
 preserveAspectRatio="xMidYMid meet">
<metadata>
Created by potrace 1.11, written by Peter Selinger 2001-2013
</metadata>
<g transform="translate(0.000000,650.000000) scale(0.100000,-0.100000)"
fill="#000000" stroke="none">
<path d="M3147 6354 c-1 -1 -51 -4 -112 -8 -60 -3 -121 -8 -135 -10 -14 -2
-52 -7 -85 -11 -33 -4 -105 -16 -160 -27 -55 -11 -111 -22 -124 -24 -14 -3
-28 -7 -31 -9 -4 -2 -22 -7 -40 -10 -44 -8 -340 -106 -410 -136 -107 -47 -328
-158 -335 -168 -3 -6 -10 -9 -15 -6 -4 3 -13 -2 -20 -10 -7 -8 -18 -15 -26
-15 -7 0 -17 -7 -22 -16 -5 -9 -11 -14 -14 -12 -5 4 -161 -97 -183 -118 -8 -9
-15 -13 -15 -10 0 6 -24 -12 -68 -51 -14 -13 -28 -23 -31 -23 -3 0 -20 -13
-37 -28 -17 -15 -57 -49 -89 -77 -70 -60 -207 -196 -288 -286 -67 -73 -250
-314 -247 -325 1 -4 -2 -10 -7 -13 -11 -7 -73 -97 -73 -105 0 -3 -18 -34 -40
-68 -22 -35 -40 -69 -40 -75 0 -7 -4 -13 -10 -13 -5 0 -10 -4 -10 -10 0 -5
-18 -47 -41 -92 -90 -184 -205 -507 -233 -658 -2 -14 -9 -45 -15 -70 -16 -72
-36 -199 -46 -297 -3 -29 -8 -79 -11 -110 -6 -65 -7 -427 0 -458 2 -11 7 -56
11 -99 4 -43 9 -88 11 -100 2 -12 7 -41 10 -66 3 -25 9 -61 14 -80 5 -19 12
-51 15 -70 14 -82 53 -226 90 -335 62 -181 175 -441 199 -457 6 -4 8 -8 4 -8
-4 0 9 -28 29 -63 19 -34 44 -78 55 -97 30 -52 80 -124 92 -132 6 -4 7 -8 3
-8 -7 0 64 -101 90 -128 7 -7 13 -16 13 -20 0 -4 17 -26 38 -49 20 -23 47 -55
59 -70 63 -80 152 -173 165 -173 6 0 9 -2 6 -5 -3 -3 24 -34 61 -68 36 -34 68
-65 71 -68 15 -19 181 -149 190 -149 5 0 10 -4 10 -9 0 -7 81 -67 131 -97 11
-6 28 -19 39 -29 11 -10 20 -14 20 -9 0 5 4 4 8 -2 9 -14 144 -94 156 -93 5 0
12 -4 15 -9 7 -12 174 -96 281 -142 186 -81 463 -166 635 -194 17 -3 53 -10
80 -15 52 -10 103 -16 240 -30 83 -9 524 -6 585 3 19 3 53 8 75 11 105 12 131
16 169 25 23 5 56 11 74 15 100 17 344 85 353 98 3 4 10 7 15 6 5 -1 18 1 29
5 11 4 34 13 50 18 73 26 270 112 273 120 2 4 9 8 16 8 16 0 129 60 138 74 4
6 8 8 8 4 0 -20 367 224 446 297 6 6 31 26 55 45 90 70 364 355 418 434 8 12
17 23 21 26 10 9 66 83 112 150 140 201 268 446 351 670 36 99 93 276 101 320
3 14 8 36 11 50 13 49 45 206 50 250 4 25 8 55 10 68 2 13 7 56 10 95 4 40 8
90 11 112 5 54 5 357 -1 425 -13 152 -39 331 -66 450 -6 25 -12 52 -14 60 -9
44 -37 142 -53 190 -11 30 -20 58 -20 63 -1 11 -38 110 -79 212 -43 105 -171
358 -184 363 -5 2 -9 9 -9 16 0 34 -225 347 -347 485 -18 20 -33 40 -33 44 0
5 -4 5 -10 2 -5 -3 -10 -1 -10 4 0 18 -193 205 -295 286 -27 22 -52 42 -55 45
-13 14 -89 70 -94 70 -3 0 -14 8 -25 18 -29 27 -135 97 -143 94 -5 -1 -8 1 -8
6 0 4 -17 16 -37 27 -21 11 -40 23 -43 26 -5 7 -221 123 -230 124 -3 1 -20 9
-37 18 -18 10 -34 17 -35 17 -2 -1 -29 11 -61 25 -32 15 -63 28 -70 29 -7 1
-21 7 -32 13 -17 9 -144 54 -167 59 -5 1 -9 2 -10 4 -2 1 -10 3 -18 5 -8 3
-73 20 -144 39 -71 19 -131 35 -135 34 -3 0 -9 1 -13 2 -18 6 -85 18 -133 25
-16 2 -46 6 -65 9 -102 17 -248 28 -408 30 -68 1 -124 1 -125 0z m412 -207
c13 -4 47 -9 75 -11 28 -3 76 -10 106 -16 30 -6 69 -13 85 -16 75 -13 347 -88
405 -111 8 -4 17 -7 20 -7 3 -1 11 -5 17 -9 7 -5 21 -10 30 -12 10 -2 32 -9
48 -16 17 -7 33 -12 38 -11 4 1 7 -3 7 -10 0 -6 3 -9 6 -5 6 5 272 -126 329
-163 17 -11 37 -23 45 -27 34 -15 272 -183 295 -207 6 -6 28 -24 50 -41 71
-53 216 -194 330 -320 69 -77 295 -383 295 -400 0 -1 23 -41 50 -89 28 -48 50
-91 50 -96 0 -6 5 -10 10 -10 6 0 10 -6 10 -14 0 -7 10 -33 23 -57 86 -162
181 -451 232 -704 23 -114 25 -127 41 -285 16 -148 9 -533 -11 -655 -3 -16 -7
-45 -10 -63 -3 -17 -8 -49 -11 -69 -16 -131 -110 -444 -193 -648 -23 -56 -131
-265 -171 -330 -22 -36 -40 -70 -40 -75 0 -6 -3 -10 -7 -10 -8 0 -43 -56 -42
-67 0 -3 -4 -9 -9 -12 -5 -3 -38 -44 -72 -91 -35 -47 -86 -112 -114 -145 -88
-104 -365 -375 -384 -375 -4 0 -23 -15 -43 -33 -19 -17 -55 -45 -80 -62 -24
-16 -46 -32 -49 -35 -8 -8 -123 -84 -140 -93 -8 -4 -37 -21 -65 -37 -92 -55
-279 -147 -396 -193 -102 -41 -320 -110 -388 -123 -14 -3 -27 -7 -31 -9 -4 -2
-29 -7 -56 -11 -27 -3 -52 -8 -55 -10 -7 -4 -64 -13 -189 -30 -170 -24 -539
-24 -710 0 -14 2 -50 7 -80 11 -186 24 -446 95 -655 178 -106 42 -336 153
-382 185 -16 10 -71 45 -123 78 -52 32 -99 63 -105 70 -5 6 -30 25 -55 42 -25
16 -55 40 -67 51 -13 12 -23 20 -23 18 0 -23 -341 318 -430 430 -51 63 -200
270 -200 277 0 3 -21 40 -47 83 -71 116 -161 303 -219 453 -15 41 -29 77 -29
80 -1 3 -11 37 -23 75 -55 179 -101 405 -119 585 -14 146 -6 639 11 668 2 4 6
30 10 59 3 28 13 83 21 122 8 39 17 83 20 98 2 16 13 59 24 98 11 38 17 73 15
77 -3 4 0 8 5 8 6 0 11 7 11 15 0 32 95 276 158 405 36 74 64 138 64 143 -1 4
2 7 6 7 5 0 17 18 27 40 10 22 21 40 24 40 3 0 13 15 21 33 7 17 18 37 22 42
5 6 39 55 77 110 38 55 77 109 88 120 10 11 25 29 33 41 23 32 111 133 150
172 19 19 34 38 32 43 -1 5 2 8 6 7 5 -2 29 17 54 42 41 41 103 96 197 175 20
17 38 33 39 38 2 4 8 7 14 7 5 0 28 15 51 34 23 18 69 51 102 72 33 22 62 42
63 47 2 4 8 7 13 7 11 0 91 51 100 63 3 5 9 8 13 8 17 -3 26 0 38 12 11 10
163 89 178 92 3 0 21 8 40 18 19 9 78 33 130 52 210 80 366 121 645 169 16 3
63 8 105 12 41 3 77 7 79 9 6 6 514 -2 540 -8z"/>
<path d="M3038 6036 c-1 -2 -37 -6 -78 -10 -41 -3 -86 -8 -100 -11 -22 -3 -83
-14 -170 -29 -112 -19 -352 -91 -500 -151 -85 -35 -292 -135 -345 -168 -164
-101 -290 -188 -359 -247 -130 -111 -183 -160 -266 -247 -123 -130 -160 -172
-160 -183 0 -4 -4 -10 -9 -12 -14 -5 -180 -241 -175 -249 2 -4 -2 -9 -9 -12
-6 -3 -28 -36 -47 -74 -19 -37 -38 -70 -42 -73 -27 -21 -204 -449 -223 -540
-2 -8 -13 -49 -24 -90 -35 -126 -63 -291 -81 -475 -8 -82 -5 -460 4 -505 2
-14 8 -52 12 -85 4 -33 8 -64 9 -70 11 -88 72 -352 95 -410 7 -16 13 -37 15
-46 16 -80 164 -403 246 -538 24 -39 49 -80 54 -89 107 -182 391 -500 582
-652 10 -8 40 -32 66 -53 26 -21 47 -36 47 -33 0 3 9 -2 19 -11 38 -35 54 -46
144 -103 265 -165 503 -269 796 -346 100 -26 102 -26 234 -49 155 -27 294 -39
467 -39 128 0 300 9 346 18 12 2 45 7 75 11 30 4 86 13 124 22 39 8 81 17 94
19 90 18 346 99 369 116 6 6 12 8 12 5 0 -6 51 15 180 75 54 24 215 112 295
161 45 27 245 170 273 195 17 15 48 41 69 59 188 154 431 444 574 683 79 131
209 403 224 465 1 6 7 22 13 37 31 76 102 345 116 443 3 22 8 51 11 65 27 127
38 487 22 680 -14 162 -56 383 -100 525 -12 39 -22 72 -22 75 -3 17 -49 146
-54 150 -3 3 -8 14 -10 25 -1 11 -8 29 -14 40 -6 11 -12 22 -12 25 -1 3 -9 22
-18 43 -9 20 -16 38 -15 40 2 5 -107 205 -150 277 -57 93 -133 204 -144 208
-4 2 -8 8 -8 14 0 5 -6 15 -12 22 -7 7 -26 30 -43 51 -27 35 -92 113 -105 125
-3 3 -42 44 -88 92 -45 47 -82 85 -82 83 0 -2 -18 12 -39 33 -82 78 -284 234
-341 264 -14 7 -27 16 -30 19 -3 4 -21 16 -41 27 -77 43 -84 47 -89 53 -4 5
-223 112 -285 140 -102 45 -366 131 -450 146 -11 2 -36 8 -55 12 -19 5 -42 9
-50 10 -8 0 -37 5 -65 11 -27 6 -70 13 -95 15 -25 3 -56 8 -70 11 -26 6 -505
15 -512 10z m-1138 -1082 c124 -3 256 -7 294 -8 78 -2 61 21 132 -173 20 -57
41 -103 46 -103 5 0 6 -4 3 -10 -3 -5 -3 -16 2 -22 4 -7 8 -17 9 -23 1 -5 14
-41 29 -80 59 -154 78 -201 91 -230 7 -16 23 -59 37 -95 24 -65 159 -397 177
-435 16 -35 68 -169 75 -192 3 -13 11 -23 16 -23 6 0 7 -5 4 -10 -4 -6 -2 -16
3 -23 5 -7 13 -23 17 -36 4 -13 14 -40 23 -60 9 -20 17 -40 18 -46 1 -5 8 -23
15 -40 6 -16 13 -34 15 -40 1 -5 15 -41 29 -80 15 -38 47 -126 71 -195 24 -69
48 -134 53 -145 5 -11 22 -51 37 -90 34 -90 124 -297 156 -359 l24 -47 48 103
c128 274 324 743 461 1103 48 127 97 257 110 290 13 33 44 119 70 190 25 72
52 146 60 165 11 29 23 64 30 90 1 3 5 12 8 20 7 18 35 97 129 370 39 113 74
210 79 215 5 8 610 11 845 5 17 0 32 -43 23 -67 -9 -23 -20 -28 -94 -38 -91
-12 -173 -42 -221 -82 -24 -21 -65 -78 -68 -96 -1 -7 -5 -17 -8 -23 -4 -6 -10
-26 -13 -44 -3 -18 -7 -36 -9 -39 -4 -5 -10 -55 -21 -166 -2 -22 -7 -112 -10
-200 -4 -88 -8 -194 -10 -235 -14 -308 -20 -717 -20 -1340 0 -805 -1 -792 66
-873 29 -35 88 -73 128 -82 164 -40 196 -60 165 -103 l-16 -23 -545 3 c-357 2
-553 6 -567 13 -26 13 -32 40 -14 59 8 8 41 19 74 26 32 6 66 14 74 17 8 3 20
7 25 8 35 8 86 37 109 61 26 29 64 116 72 164 2 14 5 34 8 45 9 45 17 226 21
491 2 154 7 351 10 439 7 221 13 407 20 625 3 102 7 241 10 310 3 69 8 215 11
325 3 110 7 232 8 270 2 39 1 78 -2 88 -7 26 -27 21 -42 -10 -15 -33 -140
-339 -176 -433 -25 -65 -36 -90 -54 -132 -16 -40 -56 -138 -124 -308 -37 -91
-70 -174 -75 -185 -5 -11 -28 -67 -51 -125 -22 -58 -45 -114 -50 -125 -5 -11
-27 -65 -48 -120 -21 -55 -43 -109 -47 -120 -5 -11 -9 -22 -10 -25 -1 -3 -6
-16 -12 -30 -6 -14 -20 -47 -30 -75 -11 -27 -23 -59 -28 -70 -4 -11 -10 -29
-12 -39 -2 -11 -7 -24 -12 -30 -10 -14 -163 -422 -162 -433 0 -2 -7 -19 -15
-38 -8 -20 -12 -40 -9 -45 3 -4 2 -10 -2 -12 -5 -1 -41 -104 -82 -228 -40
-124 -82 -241 -92 -261 -10 -20 -16 -39 -13 -41 3 -3 -4 -8 -16 -11 -27 -7
-47 15 -60 66 -23 86 -104 311 -225 622 -87 224 -98 250 -115 290 -10 22 -59
148 -108 280 -150 398 -385 987 -557 1399 -73 176 -82 194 -102 215 -24 24
-32 -3 -33 -119 0 -58 -2 -213 -5 -345 -27 -1704 -26 -1963 10 -2075 3 -10 8
-28 10 -39 7 -39 42 -106 71 -136 65 -68 116 -91 229 -101 38 -3 77 -10 87
-15 22 -12 31 -44 19 -68 -10 -18 -25 -19 -368 -20 -197 0 -378 -3 -403 -5
-25 -2 -91 -7 -147 -11 -92 -6 -102 -5 -111 12 -11 21 -8 51 6 65 5 5 45 14
88 20 105 14 171 46 233 114 28 31 49 59 46 64 -3 5 -1 10 5 12 6 2 12 12 14
23 2 11 9 32 15 47 11 29 36 165 47 258 3 30 8 271 9 535 2 264 5 575 9 690
26 893 25 967 -13 1161 -36 186 -149 305 -326 344 -69 15 -95 33 -95 67 0 44
-19 43 510 27z"/>
</g>
</svg>
