<?xml version="1.0" standalone="no"?>
<!DOCTYPE svg PUBLIC "-//W3C//DTD SVG 20010904//EN"
 "http://www.w3.org/TR/2001/REC-SVG-20010904/DTD/svg10.dtd">
<svg version="1.0" xmlns="http://www.w3.org/2000/svg"
 width="400.000000pt" height="400.000000pt" viewBox="0 0 400.000000 400.000000"
 preserveAspectRatio="xMidYMid meet">
<metadata>
Created by potrace 1.11, written by Peter Selinger 2001-2013
</metadata>
<g transform="translate(0.000000,400.000000) scale(0.100000,-0.100000)"
fill="#000000" stroke="none">
<path d="M1958 3935 c-2 -2 -52 -5 -113 -8 -60 -3 -119 -8 -130 -10 -11 -3
-40 -8 -65 -12 -44 -7 -277 -72 -292 -81 -4 -3 -17 -7 -27 -9 -62 -12 -322
-146 -431 -223 -144 -101 -302 -245 -382 -347 -12 -16 -30 -37 -38 -47 -50
-56 -142 -202 -208 -328 -81 -156 -161 -400 -188 -575 -22 -138 -22 -449 0
-595 25 -165 110 -419 193 -580 87 -167 175 -294 293 -423 79 -87 99 -107 159
-157 30 -25 59 -50 65 -55 6 -6 54 -41 106 -77 188 -131 443 -242 683 -298
146 -34 215 -41 407 -41 141 0 242 5 295 15 11 2 40 7 65 11 48 7 238 61 330
93 89 31 362 168 380 191 3 3 32 24 65 46 33 22 69 49 81 60 12 11 41 36 64
55 113 93 223 218 332 375 60 86 198 344 198 370 0 8 4 23 9 33 12 21 65 189
80 252 35 152 42 215 42 430 0 270 -12 350 -93 600 -79 246 -232 516 -383 676
-16 17 -52 56 -80 85 -27 30 -75 75 -105 99 -30 25 -61 51 -68 58 -48 44 -218
151 -337 210 -154 77 -366 151 -510 176 -16 3 -41 8 -55 11 -35 7 -337 25
-342 20z m227 -160 c306 -29 626 -155 884 -348 121 -91 315 -285 355 -356 5
-9 12 -18 16 -21 4 -3 29 -39 57 -80 74 -110 140 -248 189 -393 37 -110 52
-168 79 -307 18 -90 23 -295 11 -435 -39 -466 -288 -928 -661 -1227 -389 -311
-868 -440 -1385 -373 -149 19 -399 101 -547 180 -94 50 -220 128 -233 145 -3
4 -12 11 -21 16 -76 42 -247 215 -367 369 -64 82 -180 290 -223 400 -21 52
-78 246 -88 295 -46 235 -47 436 -5 690 19 117 94 339 160 470 39 80 84 152
184 294 49 70 227 248 311 309 35 27 72 54 81 62 9 7 27 19 40 26 13 6 25 16
28 20 11 16 280 148 323 159 23 6 49 15 58 20 49 27 268 74 399 86 41 3 76 7
77 8 5 4 211 -2 278 -9z"/>
<path d="M730 2925 c0 -8 9 -16 20 -16 11 -1 23 -2 28 -3 4 -1 25 -5 47 -10
115 -23 187 -104 203 -231 4 -27 7 -365 7 -750 0 -655 -1 -704 -19 -757 -38
-116 -126 -178 -268 -187 -10 0 -18 -8 -18 -16 0 -13 44 -15 340 -15 296 0
340 2 340 15 0 8 -6 15 -12 15 -88 3 -183 44 -228 98 -67 81 -64 49 -67 867
-2 800 -6 753 46 635 30 -67 574 -1333 641 -1490 37 -87 63 -136 74 -138 11
-3 23 11 37 45 11 26 29 66 39 88 9 22 82 191 160 375 78 184 150 353 160 375
10 22 93 217 185 434 92 216 173 404 180 417 10 19 12 -119 10 -713 -2 -421
-7 -756 -12 -780 -26 -112 -103 -182 -224 -204 -45 -8 -69 -17 -69 -26 0 -11
83 -13 465 -13 387 0 465 2 465 14 0 9 -22 18 -62 26 -140 27 -215 101 -234
230 -10 72 -11 1377 0 1455 10 78 26 115 71 159 44 44 101 71 173 81 35 5 52
12 52 21 0 12 -46 14 -302 12 l-302 -3 -72 -170 c-93 -221 -69 -163 -260 -620
-91 -220 -174 -418 -184 -440 -10 -22 -45 -105 -78 -184 -32 -79 -62 -139 -65
-134 -3 5 -71 171 -151 369 -80 197 -215 532 -301 744 -86 212 -161 397 -167
413 l-10 27 -319 0 c-277 0 -319 -2 -319 -15z"/>
</g>
</svg>
