<?xml version="1.0" standalone="no"?>
<!DOCTYPE svg PUBLIC "-//W3C//DTD SVG 20010904//EN"
 "http://www.w3.org/TR/2001/REC-SVG-20010904/DTD/svg10.dtd">
<svg version="1.0" xmlns="http://www.w3.org/2000/svg"
 width="644.000000pt" height="644.000000pt" viewBox="0 0 644.000000 644.000000"
 preserveAspectRatio="xMidYMid meet">
<metadata>
Created by potrace 1.11, written by Peter Selinger 2001-2013
</metadata>
<g transform="translate(0.000000,644.000000) scale(0.100000,-0.100000)"
fill="#000000" stroke="none">
<path d="M730 3315 l0 -2845 375 0 375 0 0 2480 c0 1647 3 2480 10 2480 6 0
10 -11 10 -25 0 -14 5 -25 10 -25 6 0 10 -11 10 -24 0 -14 5 -28 10 -31 6 -3
10 -17 10 -30 0 -13 5 -27 10 -30 6 -3 10 -15 10 -26 0 -10 5 -19 10 -19 6 0
10 -10 10 -23 0 -13 4 -27 8 -32 4 -6 14 -28 21 -50 7 -22 19 -53 26 -70 7
-16 28 -68 45 -115 17 -47 35 -92 39 -100 4 -8 14 -36 22 -62 7 -27 17 -48 21
-48 4 0 8 -13 8 -30 0 -16 5 -30 10 -30 6 0 10 -9 10 -20 0 -11 4 -28 9 -38
15 -29 29 -65 42 -107 7 -22 17 -44 21 -49 4 -6 8 -20 8 -32 0 -12 4 -24 8
-26 4 -1 21 -39 36 -83 16 -44 33 -84 37 -89 5 -6 9 -20 9 -33 0 -13 5 -23 10
-23 6 0 10 -9 10 -20 0 -11 5 -30 12 -43 24 -47 28 -57 28 -72 0 -15 4 -25 28
-72 7 -13 12 -32 12 -43 0 -11 4 -20 8 -20 5 0 15 -23 22 -51 8 -27 18 -52 22
-55 4 -3 8 -16 8 -29 0 -13 4 -26 9 -29 4 -3 21 -40 36 -83 15 -43 32 -82 36
-87 5 -6 9 -18 9 -28 0 -10 5 -27 10 -38 6 -11 15 -29 20 -40 6 -11 10 -29 10
-40 0 -11 5 -20 10 -20 6 0 10 -9 10 -20 0 -11 5 -29 10 -40 6 -11 15 -29 20
-40 6 -11 10 -27 10 -35 0 -8 5 -24 10 -35 6 -11 15 -29 20 -40 6 -11 10 -29
10 -40 0 -11 5 -20 10 -20 6 0 10 -8 10 -18 0 -10 8 -36 19 -58 10 -21 27 -64
37 -94 10 -30 22 -56 27 -58 4 -2 7 -12 7 -23 0 -11 5 -28 10 -39 6 -11 15
-29 20 -40 6 -11 10 -27 10 -35 0 -8 5 -24 10 -35 6 -11 15 -29 20 -40 6 -11
10 -29 10 -40 0 -11 5 -20 10 -20 6 0 10 -11 10 -24 0 -14 5 -28 10 -31 6 -3
10 -17 10 -31 0 -13 5 -24 10 -24 6 0 10 -9 10 -20 0 -11 4 -28 9 -38 15 -28
58 -135 66 -162 8 -27 31 -85 46 -112 5 -10 9 -27 9 -38 0 -11 5 -20 10 -20 6
0 10 -11 10 -24 0 -14 5 -28 10 -31 6 -3 10 -17 10 -31 0 -13 5 -24 10 -24 6
0 10 -9 10 -20 0 -11 5 -29 10 -40 5 -11 14 -29 20 -40 6 -11 10 -29 10 -40 0
-11 5 -20 10 -20 6 0 10 -11 10 -24 0 -14 5 -28 10 -31 6 -3 10 -17 10 -31 0
-13 3 -24 8 -24 4 0 15 -24 25 -52 10 -29 23 -65 29 -80 l10 -28 392 0 392 0
14 50 c7 27 17 50 22 50 4 0 8 11 8 24 0 14 4 28 10 31 5 3 10 17 10 31 0 13
5 24 10 24 6 0 10 14 10 30 0 17 4 30 8 30 5 0 15 22 22 50 7 27 17 50 22 50
4 0 8 10 8 23 0 13 4 27 9 32 4 6 21 47 37 93 16 45 32 82 36 82 5 0 8 11 8
24 0 14 5 28 10 31 6 3 10 15 10 26 0 10 4 27 9 37 5 9 14 31 21 47 7 17 16
38 21 47 5 10 9 27 9 38 0 11 5 20 10 20 6 0 10 9 10 20 0 20 4 29 28 77 7 13
12 31 12 41 0 10 3 22 7 26 7 6 14 24 51 128 11 31 27 72 35 90 8 18 20 49 27
68 15 43 30 79 41 102 5 10 9 27 9 38 0 11 5 20 10 20 6 0 10 14 10 30 0 17 5
30 10 30 6 0 10 9 10 20 0 11 4 28 9 38 5 9 14 31 21 47 7 17 16 38 21 47 5
10 9 26 9 36 0 10 4 22 9 28 5 5 21 44 36 87 15 43 32 80 36 83 5 3 9 14 9 25
0 10 4 27 9 37 5 9 14 31 21 47 7 17 16 38 21 47 5 10 9 27 9 37 0 11 5 23 10
26 6 3 10 17 10 31 0 13 5 24 10 24 6 0 10 11 10 25 0 14 5 25 10 25 6 0 10
10 10 23 0 13 4 27 8 33 4 5 14 27 21 49 7 22 16 49 21 60 5 11 25 63 45 115
20 52 40 103 45 112 6 10 10 27 10 37 0 11 4 23 10 26 6 3 10 15 10 26 0 10 5
19 10 19 6 0 10 11 10 24 0 14 5 28 10 31 6 3 10 15 10 26 0 10 4 27 9 37 5 9
14 31 21 47 7 17 16 38 21 47 5 10 9 27 9 37 0 11 5 23 10 26 6 3 10 17 10 30
0 13 4 25 8 27 4 2 18 32 31 68 13 36 30 81 38 100 28 65 32 75 44 115 7 22
17 44 21 49 4 6 8 20 8 33 0 13 5 23 10 23 6 0 10 11 10 24 0 14 4 28 10 31 5
3 10 17 10 31 0 13 4 24 8 24 5 0 15 23 22 51 8 27 18 52 22 55 4 3 8 16 8 29
0 13 4 26 9 30 5 3 17 29 27 57 14 43 19 49 25 33 4 -11 8 -1128 8 -2483 l1
-2462 373 2 372 3 0 2840 0 2840 -568 3 c-617 2 -597 4 -597 -52 0 -14 -4 -26
-10 -26 -5 0 -10 -9 -10 -19 0 -11 -4 -23 -10 -26 -6 -3 -10 -15 -10 -26 0
-10 -4 -27 -10 -37 -5 -9 -25 -60 -45 -112 -20 -52 -40 -104 -44 -115 -5 -11
-14 -36 -21 -55 -7 -19 -16 -45 -21 -57 -23 -58 -32 -79 -40 -95 -5 -10 -9
-25 -9 -33 0 -8 -4 -24 -10 -35 -5 -11 -14 -29 -20 -40 -5 -11 -10 -29 -10
-40 0 -11 -4 -20 -10 -20 -5 0 -10 -11 -10 -24 0 -14 -5 -28 -10 -31 -6 -3
-10 -17 -10 -30 0 -13 -3 -25 -7 -27 -5 -1 -17 -28 -27 -58 -19 -56 -50 -131
-67 -162 -5 -10 -9 -25 -9 -33 0 -8 -4 -24 -10 -35 -5 -11 -14 -29 -20 -40 -5
-11 -10 -29 -10 -40 0 -11 -4 -20 -10 -20 -5 0 -10 -11 -10 -24 0 -14 -4 -28
-10 -31 -5 -3 -10 -17 -10 -31 0 -13 -4 -24 -8 -24 -5 0 -15 -23 -22 -51 -8
-27 -18 -52 -22 -55 -4 -3 -8 -16 -8 -30 0 -13 -4 -24 -10 -24 -5 0 -10 -6
-10 -14 0 -15 -34 -106 -56 -149 -8 -16 -14 -37 -14 -48 0 -10 -4 -19 -10 -19
-5 0 -10 -11 -10 -24 0 -14 -5 -28 -10 -31 -5 -3 -10 -17 -10 -31 0 -13 -4
-24 -10 -24 -5 0 -10 -9 -10 -20 0 -11 -5 -30 -12 -43 -24 -48 -28 -57 -28
-77 0 -11 -4 -20 -10 -20 -5 0 -10 -11 -10 -24 0 -14 -4 -28 -10 -31 -6 -3
-10 -17 -10 -31 0 -13 -4 -24 -10 -24 -5 0 -10 -11 -10 -24 0 -14 -4 -27 -9
-31 -5 -3 -22 -42 -37 -88 -15 -45 -30 -84 -33 -87 -4 -3 -13 -25 -21 -50 -7
-25 -17 -49 -22 -54 -4 -6 -8 -20 -8 -33 0 -13 -4 -23 -10 -23 -5 0 -10 -11
-10 -24 0 -14 -5 -28 -10 -31 -6 -3 -10 -17 -10 -31 0 -13 -4 -24 -10 -24 -5
0 -10 -9 -10 -20 0 -11 -5 -29 -10 -40 -5 -11 -14 -29 -20 -40 -6 -11 -10 -27
-10 -35 0 -8 -4 -23 -9 -33 -20 -38 -51 -113 -51 -124 0 -7 -12 -35 -25 -63
-14 -27 -25 -58 -25 -67 0 -9 -5 -20 -10 -23 -5 -3 -10 -17 -10 -31 0 -13 -4
-24 -10 -24 -5 0 -10 -9 -10 -20 0 -11 -4 -29 -10 -40 -5 -11 -14 -29 -20 -40
-5 -11 -10 -29 -10 -40 0 -11 -4 -20 -10 -20 -5 0 -10 -11 -10 -25 0 -14 -4
-25 -10 -25 -5 0 -10 -10 -10 -23 0 -13 -4 -27 -8 -32 -4 -6 -14 -28 -21 -50
-7 -22 -16 -49 -21 -60 -5 -11 -25 -63 -45 -115 -20 -52 -40 -103 -45 -112 -6
-10 -10 -24 -10 -32 0 -7 -7 -19 -15 -26 -12 -10 -16 -9 -21 6 -3 11 -10 27
-15 36 -5 10 -9 27 -9 37 0 11 -4 23 -10 26 -5 3 -10 17 -10 31 0 13 -4 24
-10 24 -5 0 -10 11 -10 24 0 14 -4 28 -10 31 -5 3 -10 17 -10 31 0 13 -4 24
-10 24 -5 0 -10 5 -10 11 0 11 -57 163 -80 214 -5 11 -14 38 -21 60 -7 22 -17
44 -21 50 -4 5 -8 19 -8 32 0 13 -4 23 -10 23 -5 0 -10 11 -10 24 0 14 -4 28
-10 31 -5 3 -10 17 -10 31 0 13 -4 24 -10 24 -5 0 -10 9 -10 20 0 11 -5 30
-12 43 -24 48 -28 57 -28 77 0 11 -4 20 -10 20 -5 0 -10 9 -10 20 0 11 -4 28
-10 38 -15 27 -60 147 -60 160 0 7 -4 12 -10 12 -5 0 -10 11 -10 24 0 14 -4
28 -10 31 -5 3 -10 17 -10 30 0 13 -4 27 -10 30 -5 3 -10 17 -10 31 0 13 -4
24 -8 24 -5 0 -15 23 -22 50 -7 28 -17 50 -22 50 -4 0 -8 14 -8 30 0 17 -4 30
-10 30 -5 0 -10 9 -10 20 0 11 -4 28 -9 38 -17 34 -65 156 -92 237 -8 22 -16
42 -19 45 -3 3 -12 25 -20 50 -7 25 -17 49 -22 55 -4 5 -8 19 -8 32 0 13 -4
23 -10 23 -5 0 -10 11 -10 24 0 14 -4 28 -10 31 -5 3 -10 17 -10 31 0 13 -4
24 -10 24 -5 0 -10 9 -10 20 0 11 -5 30 -12 43 -24 47 -28 57 -28 72 0 8 -4
23 -9 33 -21 38 -50 110 -67 165 -10 31 -21 57 -26 57 -4 0 -8 11 -8 24 0 14
-4 28 -10 31 -5 3 -10 17 -10 31 0 13 -4 24 -10 24 -5 0 -10 11 -10 24 0 14
-4 28 -10 31 -5 3 -10 17 -10 31 0 13 -4 24 -10 24 -5 0 -10 9 -10 20 0 11 -5
30 -12 43 -24 48 -28 57 -28 77 0 11 -4 20 -10 20 -5 0 -10 11 -10 24 0 14 -4
28 -10 31 -5 3 -10 15 -10 26 0 11 -6 30 -14 42 -8 12 -24 51 -36 87 -12 36
-26 69 -31 74 -5 6 -9 18 -9 28 0 10 -4 27 -10 38 -22 44 -27 57 -41 103 -7
26 -17 47 -21 47 -4 0 -8 14 -8 30 0 17 -4 30 -10 30 -5 0 -10 9 -10 20 0 11
-4 28 -9 38 -11 23 -26 59 -41 102 -7 19 -18 49 -25 65 -7 17 -25 63 -40 103
l-27 72 -574 0 -574 0 0 -2845z"/>
</g>
</svg>
